<svg xmlns="http://www.w3.org/2000/svg" viewBox="0 0 24 24" fill="none">
  <path
    fill="#ffffff"
    d="M11.25 2c0-.41.34-.75.75-.75s.75.34.75.75v6.4l4.6-1.6c.38-.13.8.15.8.55v1.15c0 .25-.16.48-.4.57L12.75 11v2.1l3.2.95c.22.07.37.27.37.5v.9a.55.55 0 0 1-.73.52L12.75 15.3v2.7l1.25 1.2c.17.16.25.39.2.62l-.25 1.08c-.08.35-.39.6-.75.6h-2c-.36 0-.67-.25-.75-.6l-.25-1.08a.74.74 0 0 1 .2-.62l1.25-1.2v-2.7l-2.84.77a.55.55 0 0 1-.73-.52v-.9c0-.23.15-.43.37-.5l3.2-.95V11l-4.05-1.93a.6.6 0 0 1-.34-.54V8.18c0-.4.42-.68.81-.55l4.58 1.56V2Z"
  />
  <path
    fill="#ffffff"
    d="M4.75 11.25c0-.41.34-.75.75-.75H9v1.5H5.5a.75.75 0 0 1-.75-.75Zm9.5 0c0-.41.34-.75.75-.75h3.5c.41 0 .75.34.75.75s-.34.75-.75.75H15a.75.75 0 0 1-.75-.75Z"
  />
</svg>
