<svg xmlns="http://www.w3.org/2000/svg" viewBox="0 0 24 24" fill="none">
  <path
    fill="#ffffff"
    d="M3 6.25C3 5.56 3.56 5 4.25 5H20a.75.75 0 0 1 0 1.5H4.25A.75.75 0 0 1 3 6.25Z"
  />
  <path
    fill="#ffffff"
    d="M10.75 8.5c0-.41.34-.75.75-.75h4.1c1.45 0 2.67 1.1 2.84 2.54l.35 2.88c.05.38-.24.71-.63.71H15.7c-.83 0-1.58-.5-1.9-1.26l-.6-1.39h-1.7V8.5Zm1.5 3.1h1.26c.28 0 .53.17.63.43l.46 1.16c.15.37.5.62.9.62h1.6l-.2-1.65a1.2 1.2 0 0 0-1.19-1.03h-3.46Zm-6.23-.24a.75.75 0 0 1 .86-.61l2.25.35a.75.75 0 1 1-.24 1.48l-2.25-.35a.75.75 0 0 1-.62-.87Z"
  />
  <path
    fill="#ffffff"
    d="M11.9 5.4c0-.33.27-.6.6-.6h2.8a.6.6 0 1 1 0 1.2h-2.8a.6.6 0 0 1-.6-.6Z"
  />
</svg>
