<svg xmlns="http://www.w3.org/2000/svg" viewBox="0 0 24 24" fill="none">
  <path
    fill="#ffffff"
    d="M3 7.5c0-.28.22-.5.5-.5h17c.28 0 .5.22.5.5s-.22.5-.5.5h-17a.5.5 0 0 1-.5-.5Zm3.4 3.25c0-.39.31-.7.7-.7h6.3c1.79 0 3.1 1.5 3.1 3.1V15h1.5a.5.5 0 0 1 .5.5v1c0 .28-.22.5-.5.5h-4.6a2.7 2.7 0 0 1-2.5-1.7l-.5-1.3H8.6v1.75a.75.75 0 0 1-1.5 0v-4.5Zm2.1.8v1.2h2.63l.74 1.9c.24.58.8.98 1.43.98h3.3v-.35c0-.9-.76-1.9-1.85-1.9h-4.6a.75.75 0 0 1-.7-.5l-.45-1.33H8.5Z"
  />
  <path
    fill="#ffffff"
    d="M12.5 5.4c0-.33.27-.6.6-.6h2.8a.6.6 0 1 1 0 1.2h-2.8a.6.6 0 0 1-.6-.6Z"
  />
</svg>
